HIERARCHY
ROOT Hips
{
	OFFSET -0.001795 -0.223333 0.028219
	CHANNELS 6 Xposition Yposition Zposition Zrotation Yrotation Xrotation 
	JOINT LeftUpLeg
	{
		OFFSET 0.069520 -0.091406 -0.006815
		CHANNELS 3 Zrotation Yrotation Xrotation
		JOINT LeftLeg
		{
			OFFSET 0.034277 -0.375199 -0.004496
			CHANNELS 3 Zrotation Yrotation Xrotation
			JOINT LeftFoot
			{
				OFFSET -0.013596 -0.397961 -0.043693
				CHANNELS 3 Zrotation Yrotation Xrotation
				JOINT LeftToe
				{
					OFFSET 0.026358 -0.055791 0.119288
					CHANNELS 3 Zrotation Yrotation Xrotation
					End Site
					{
						OFFSET 0.000000 0.000000 0.000000
					}
				}
			}
		}
	}
	JOINT RightUpLeg
	{
		OFFSET -0.067670 -0.090522 -0.004320
		CHANNELS 3 Zrotation Yrotation Xrotation
		JOINT RightLeg
		{
			OFFSET -0.038290 -0.382569 -0.008850
			CHANNELS 3 Zrotation Yrotation Xrotation
			JOINT RightFoot
			{
				OFFSET 0.015774 -0.398415 -0.042312
				CHANNELS 3 Zrotation Yrotation Xrotation
				JOINT RightToe
				{
					OFFSET -0.025372 -0.048144 0.123348
					CHANNELS 3 Zrotation Yrotation Xrotation
					End Site
					{
						OFFSET 0.000000 0.000000 0.000000
					}
				}
			}
		}
	}
	JOINT Spine
	{
		OFFSET -0.002533 0.108963 -0.026696
		CHANNELS 3 Zrotation Yrotation Xrotation
		JOINT Spine1
		{
			OFFSET 0.005487 0.135180 0.001092
			CHANNELS 3 Zrotation Yrotation Xrotation
			JOINT Spine2
			{
				OFFSET 0.001457 0.052922 0.025425
				CHANNELS 3 Zrotation Yrotation Xrotation
				JOINT Neck
				{
					OFFSET -0.002778 0.213870 -0.042857
					CHANNELS 3 Zrotation Yrotation Xrotation
					JOINT Head
					{
						OFFSET 0.005152 0.064970 0.051349
						CHANNELS 3 Zrotation Yrotation Xrotation
						End Site
						{
							OFFSET 0.000000 0.000000 0.000000
						}
					}
				}
				JOINT LeftShoulder
				{
					OFFSET 0.078845 0.121749 -0.034090
					CHANNELS 3 Zrotation Yrotation Xrotation
					JOINT LeftArm
					{
						OFFSET 0.090977 0.030469 -0.008868
						CHANNELS 3 Zrotation Yrotation Xrotation
						JOINT LeftForeArm
						{
							OFFSET 0.259612 -0.012772 -0.027456
							CHANNELS 3 Zrotation Yrotation Xrotation
							JOINT LeftHand
							{
								OFFSET 0.249234 0.008986 -0.001171
								CHANNELS 3 Zrotation Yrotation Xrotation
								End Site
								{
									OFFSET 0.000000 0.000000 0.000000
								}
							}
						}
					}
				}
				JOINT RightShoulder
				{
					OFFSET -0.081759 0.118833 -0.038615
					CHANNELS 3 Zrotation Yrotation Xrotation
					JOINT RightArm
					{
						OFFSET -0.096012 0.032551 -0.009143
						CHANNELS 3 Zrotation Yrotation Xrotation
						JOINT RightForeArm
						{
							OFFSET -0.253742 -0.013329 -0.021401
							CHANNELS 3 Zrotation Yrotation Xrotation
							JOINT RightHand
							{
								OFFSET -0.255298 0.007772 -0.005559
								CHANNELS 3 Zrotation Yrotation Xrotation
								End Site
								{
									OFFSET 0.000000 0.000000 0.000000
								}
							}
						}
					}
				}
			}
		}
	}
}
MOTION
Frames: 11
Frame Time: 0.050000
0.498279 0.941549 2.879617 175.830462 6.988922 174.183154 7.308831 -8.203902 -17.700589 -6.430605 -8.759890 10.056596 43.293198 -43.787607 45.901073 0.000000 0.000000 0.000000 3.672409 -8.036361 10.662963 -4.425996 -4.462013 0.053559 92.135450 -9.198618 -28.156610 0.000000 0.000000 0.000000 2.067307 -2.640490 14.186601 -2.836432 -8.034970 -13.385754 2.451214 12.431245 26.040873 -6.179922 -32.055548 -16.488630 0.000000 0.000000 0.000000 25.647478 15.255429 -157.239313 95.887932 -9.312129 -2.479658 17.022646 44.153271 -1.116595 0.000000 0.000000 0.000000 7.143535 -37.063905 66.641806 34.601002 50.101373 24.103389 -33.040408 14.835604 -1.735325 0.000000 0.000000 0.000000 
0.499277 0.941089 2.878303 175.496333 7.023209 174.674476 7.877093 -8.818525 -18.754151 -7.032487 -8.998006 9.643648 40.568843 -43.643359 49.528956 0.000000 0.000000 0.000000 3.137757 -7.946227 10.082603 -3.964090 -4.822211 0.308611 92.174640 -8.849301 -27.725457 0.000000 0.000000 0.000000 2.041948 -2.377560 13.647841 -3.941387 -8.751083 -12.810795 3.038967 13.241459 25.214926 -9.963796 -35.374677 -13.480419 0.000000 0.000000 0.000000 25.217399 15.388083 -160.568954 95.873468 -11.564236 -4.218880 15.440185 42.799122 -1.835270 0.000000 0.000000 0.000000 7.114177 -37.508874 69.071966 34.338924 53.552809 25.780213 -31.887957 12.397525 -1.515625 0.000000 0.000000 0.000000 
0.499800 0.941057 2.877022 175.387831 5.705562 175.368663 8.188558 -9.646572 -20.246611 -7.729730 -9.542701 9.757020 40.391727 -44.982130 50.559155 0.000000 0.000000 0.000000 3.398201 -7.557121 9.321661 -3.969828 -5.066027 0.564285 92.726114 -8.619340 -29.366208 0.000000 0.000000 0.000000 1.862970 -2.243454 13.409496 -3.906812 -8.773350 -13.171437 3.216004 13.222607 24.687733 -13.082729 -38.757182 -11.504292 0.000000 0.000000 0.000000 24.410970 18.502958 -172.282699 95.165169 -22.157630 -14.605494 22.297483 37.164095 0.335136 0.000000 0.000000 0.000000 5.124120 -38.700751 76.271239 32.157787 59.249628 28.453562 -32.727908 8.409834 -0.807468 0.000000 0.000000 0.000000 
0.499904 0.940950 2.875392 175.142964 5.182932 175.921404 8.301195 -10.108827 -21.122317 -7.902698 -9.689802 8.960012 38.885882 -44.742966 51.730526 0.000000 0.000000 0.000000 3.134707 -7.417867 8.655090 -3.760598 -5.427235 0.917328 93.016969 -8.336224 -29.688370 0.000000 0.000000 0.000000 1.635624 -2.145002 13.273167 -4.435159 -8.985954 -13.347192 3.617855 14.187109 24.254483 -17.275854 -42.369297 -8.530967 0.000000 0.000000 0.000000 22.826814 21.643520 176.611993 92.963287 -31.860181 -23.642694 27.881393 31.242152 1.238828 0.000000 0.000000 0.000000 4.165581 -40.172599 82.145106 26.116345 63.083827 26.280907 -32.703829 6.932499 -0.665807 0.000000 0.000000 0.000000 
0.499853 0.939717 2.873159 175.440388 4.414391 176.179982 8.598836 -10.449286 -21.407897 -7.712732 -9.591059 8.619078 39.110963 -45.848563 52.093479 0.000000 0.000000 0.000000 3.705489 -6.937620 8.122211 -3.917927 -5.920905 1.800660 94.485449 -7.525128 -30.963957 0.000000 0.000000 0.000000 2.217731 -2.323414 13.479116 -5.006415 -9.546570 -13.096901 3.919571 15.450249 23.469501 -17.969091 -43.800929 -7.617651 0.000000 0.000000 0.000000 21.477939 23.630584 168.157675 91.054897 -39.357957 -30.767841 31.076133 26.945891 1.165369 0.000000 0.000000 0.000000 2.262090 -40.745210 88.241124 19.851259 66.471376 24.276529 -32.853105 4.606788 -0.272026 0.000000 0.000000 0.000000 
0.499710 0.938532 2.870143 175.572799 3.616406 176.853488 8.958840 -10.990288 -22.068638 -8.018675 -9.821465 8.495890 41.271298 -48.995683 52.177671 0.000000 0.000000 0.000000 3.686061 -6.673371 7.336538 -3.421872 -6.822001 2.460326 95.763862 -6.771311 -31.425666 0.000000 0.000000 0.000000 2.261888 -2.417742 13.697713 -5.594489 -10.004054 -13.211506 4.546413 16.224561 23.014231 -18.602922 -45.112830 -7.490859 0.000000 0.000000 0.000000 18.882949 26.671804 156.730677 86.743537 -48.378288 -37.661713 33.501490 20.566050 0.267566 0.000000 0.000000 0.000000 0.654591 -41.447043 96.352921 4.801842 69.575542 14.138947 -33.223833 1.853614 0.332252 0.000000 0.000000 0.000000 
0.499244 0.937298 2.866261 175.853262 2.906852 177.272327 8.835798 -10.844810 -21.670641 -7.189416 -9.359944 7.416869 43.101956 -49.906712 49.894996 0.000000 0.000000 0.000000 4.188215 -6.173411 6.667648 -3.607724 -7.422046 3.439703 97.143609 -5.915038 -32.451843 0.000000 0.000000 0.000000 2.377397 -2.520968 13.823388 -6.094821 -10.801594 -12.674031 5.335603 17.079766 22.125026 -18.959805 -45.733445 -8.055928 0.000000 0.000000 0.000000 16.313983 28.536514 147.854228 82.196494 -55.273638 -41.500592 35.191907 16.098539 -0.630639 0.000000 0.000000 0.000000 -1.252400 -41.742832 101.312776 -3.941286 70.622118 9.235744 -33.316767 0.081041 0.794736 0.000000 0.000000 0.000000 
0.498288 0.936512 2.861780 176.236945 2.224548 177.580092 8.633677 -10.756555 -21.483337 -6.584118 -9.085600 7.071385 48.057172 -52.244818 45.584271 0.000000 0.000000 0.000000 4.631359 -5.916551 6.491350 -3.568544 -7.804866 3.785978 98.147940 -5.462940 -33.317324 0.000000 0.000000 0.000000 2.644176 -2.765051 14.164342 -6.091373 -10.699833 -13.045615 5.396806 16.801043 22.244495 -18.895256 -45.690945 -9.492208 0.000000 0.000000 0.000000 13.337341 31.160869 139.604897 75.475510 -60.991711 -42.283779 36.429678 11.694337 -1.619545 0.000000 0.000000 0.000000 -2.273571 -41.439846 105.735318 -14.486393 71.017050 1.513796 -33.931273 -2.321653 1.493530 0.000000 0.000000 0.000000 
0.496648 0.937060 2.856938 176.360211 1.858415 177.670300 8.043420 -10.315008 -20.947220 -6.398846 -9.102135 6.717918 51.525015 -54.881531 43.705326 0.000000 0.000000 0.000000 4.987510 -5.434771 5.756426 -4.327874 -8.572493 5.543464 98.634692 -5.288906 -33.581209 0.000000 0.000000 0.000000 2.377724 -3.070172 14.863877 -6.087549 -10.748303 -13.272208 5.613891 17.456717 22.213921 -19.184230 -46.401297 -9.203036 0.000000 0.000000 0.000000 11.340606 33.193815 132.990862 68.890948 -64.779342 -41.457134 37.197974 8.351696 -2.645480 0.000000 0.000000 0.000000 -3.275645 -42.069882 107.772257 -18.273089 71.300834 -0.158549 -35.543844 -3.765882 2.338763 0.000000 0.000000 0.000000 
0.493996 0.936778 2.851648 176.573007 1.596524 178.147097 7.684269 -10.233189 -21.055858 -6.628599 -9.335195 7.757844 61.291188 -61.172511 38.985599 0.000000 0.000000 0.000000 5.437896 -4.842928 4.805099 -5.093549 -9.230190 6.998902 98.913115 -5.006759 -33.854120 0.000000 0.000000 0.000000 2.475737 -3.364155 15.338537 -5.829719 -9.882128 -14.316461 5.042561 17.330063 22.900861 -16.658098 -45.310077 -10.781891 0.000000 0.000000 0.000000 9.004682 34.062212 127.339588 60.703018 -67.861338 -37.959330 38.785018 6.284538 -3.159278 0.000000 0.000000 0.000000 -2.909338 -42.287839 111.383635 -25.498550 70.511275 -7.089836 -37.166502 -5.235002 2.980764 0.000000 0.000000 0.000000 
0.490169 0.937109 2.845212 176.459735 1.418818 178.336534 6.687398 -10.062894 -21.591041 -7.652831 -10.251919 9.680685 67.688165 -67.627163 37.669448 0.000000 0.000000 0.000000 4.928837 -5.089175 4.723832 -5.165288 -9.660521 7.541316 99.119534 -5.067022 -33.395739 0.000000 0.000000 0.000000 2.721908 -3.549131 15.603668 -6.050160 -10.371117 -14.023870 4.413176 18.482255 22.964481 -14.658803 -44.546405 -11.413623 0.000000 0.000000 0.000000 10.602857 33.538695 130.230967 65.754053 -65.876983 -40.523151 41.059100 8.577422 -2.601408 0.000000 0.000000 0.000000 -1.236690 -43.114861 110.784549 -24.316722 69.274906 -8.195709 -41.266167 -4.097883 3.478184 0.000000 0.000000 0.000000 
